<svg xmlns="http://www.w3.org/2000/svg" width="24" height="24" viewBox="0 0 24 24" fill="none" stroke="#0F172A" stroke-width="2" stroke-linecap="round" stroke-linejoin="round">
<circle cx="12" cy="12" r="3"/><path d="M19.4 15a1.7 1.7 0 0 0 .3 1.9l.1.1-2 3-.2-.1a1.7 1.7 0 0 0-2 .2 1.7 1.7 0 0 0-.8 1.7V22h-3.6v-.2a1.7 1.7 0 0 0-.8-1.7 1.7 1.7 0 0 0-2-.2l-.2.1-2-3 .1-.1A1.7 1.7 0 0 0 4.6 15a1.7 1.7 0 0 0-1.5-1H3v-4h.1a1.7 1.7 0 0 0 1.5-1 1.7 1.7 0 0 0-.3-1.9l-.1-.1 2-3 .2.1a1.7 1.7 0 0 0 2-.2 1.7 1.7 0 0 0 .8-1.7V2h3.6v.2a1.7 1.7 0 0 0 .8 1.7 1.7 1.7 0 0 0 2 .2l.2-.1 2 3-.1.1a1.7 1.7 0 0 0-.3 1.9 1.7 1.7 0 0 0 1.5 1h.1v4h-.1a1.7 1.7 0 0 0-1.5 1z"/>
</svg>